<mxfile host="Electron" modified="2024-06-26T12:47:26.879Z" agent="Mozilla/5.0 (Windows NT 10.0; Win64; x64) AppleWebKit/537.36 (KHTML, like Gecko) draw.io/24.5.3 Chrome/124.0.6367.207 Electron/30.0.6 Safari/537.36" etag="WsSfGae2gFAncMzH54H8" version="24.5.3" type="device">
  <diagram name="development" id="DOWimPerzNUD4stiu_Wy">
    <mxGraphModel dx="1900" dy="629" grid="1" gridSize="10" guides="1" tooltips="1" connect="1" arrows="1" fold="1" page="1" pageScale="1" pageWidth="850" pageHeight="1100" math="0" shadow="0">
      <root>
        <mxCell id="0" />
        <mxCell id="1" parent="0" />
        <mxCell id="UbLsy5ZLPje_TelzxTCp-1" value="" style="rounded=0;whiteSpace=wrap;html=1;strokeWidth=3;" vertex="1" parent="1">
          <mxGeometry x="245.94" y="130" width="414.06" height="330" as="geometry" />
        </mxCell>
        <mxCell id="UbLsy5ZLPje_TelzxTCp-2" value="" style="rounded=0;whiteSpace=wrap;html=1;strokeWidth=3;" vertex="1" parent="1">
          <mxGeometry x="750" y="130" width="310" height="330" as="geometry" />
        </mxCell>
        <mxCell id="UbLsy5ZLPje_TelzxTCp-5" value="" style="group" vertex="1" connectable="0" parent="1">
          <mxGeometry x="265.94" y="150" width="40" height="290" as="geometry" />
        </mxCell>
        <mxCell id="UbLsy5ZLPje_TelzxTCp-3" value="" style="rounded=1;whiteSpace=wrap;html=1;" vertex="1" parent="UbLsy5ZLPje_TelzxTCp-5">
          <mxGeometry width="40" height="290" as="geometry" />
        </mxCell>
        <mxCell id="UbLsy5ZLPje_TelzxTCp-4" value="Caddy" style="text;html=1;align=center;verticalAlign=middle;whiteSpace=wrap;rounded=0;rotation=-90;fontStyle=1" vertex="1" parent="UbLsy5ZLPje_TelzxTCp-5">
          <mxGeometry x="-10" y="128.88888888888889" width="60" height="48.33333333333333" as="geometry" />
        </mxCell>
        <mxCell id="UbLsy5ZLPje_TelzxTCp-9" style="edgeStyle=orthogonalEdgeStyle;rounded=0;orthogonalLoop=1;jettySize=auto;html=1;" edge="1" parent="1" source="UbLsy5ZLPje_TelzxTCp-6" target="UbLsy5ZLPje_TelzxTCp-8">
          <mxGeometry relative="1" as="geometry" />
        </mxCell>
        <mxCell id="UbLsy5ZLPje_TelzxTCp-6" value="" style="ellipse;shape=cloud;whiteSpace=wrap;html=1;" vertex="1" parent="1">
          <mxGeometry x="-280" y="253" width="140" height="100" as="geometry" />
        </mxCell>
        <mxCell id="UbLsy5ZLPje_TelzxTCp-10" style="edgeStyle=orthogonalEdgeStyle;rounded=0;orthogonalLoop=1;jettySize=auto;html=1;" edge="1" parent="1" source="UbLsy5ZLPje_TelzxTCp-20" target="UbLsy5ZLPje_TelzxTCp-4">
          <mxGeometry relative="1" as="geometry">
            <mxPoint x="229.99999999999994" y="303.1" as="sourcePoint" />
          </mxGeometry>
        </mxCell>
        <mxCell id="UbLsy5ZLPje_TelzxTCp-8" value="" style="sketch=0;outlineConnect=0;fontColor=#232F3E;gradientColor=none;fillColor=#8C4FFF;strokeColor=none;dashed=0;verticalLabelPosition=bottom;verticalAlign=top;align=center;html=1;fontSize=12;fontStyle=0;aspect=fixed;pointerEvents=1;shape=mxgraph.aws4.nat_gateway;" vertex="1" parent="1">
          <mxGeometry x="-29" y="264.06" width="78" height="78" as="geometry" />
        </mxCell>
        <mxCell id="UbLsy5ZLPje_TelzxTCp-37" style="edgeStyle=orthogonalEdgeStyle;rounded=0;orthogonalLoop=1;jettySize=auto;html=1;" edge="1" parent="1" target="UbLsy5ZLPje_TelzxTCp-35">
          <mxGeometry relative="1" as="geometry">
            <mxPoint x="564.06" y="304" as="sourcePoint" />
            <Array as="points">
              <mxPoint x="690" y="304" />
              <mxPoint x="690" y="174" />
            </Array>
          </mxGeometry>
        </mxCell>
        <mxCell id="UbLsy5ZLPje_TelzxTCp-13" style="edgeStyle=orthogonalEdgeStyle;rounded=0;orthogonalLoop=1;jettySize=auto;html=1;" edge="1" parent="1" source="UbLsy5ZLPje_TelzxTCp-3" target="UbLsy5ZLPje_TelzxTCp-12">
          <mxGeometry relative="1" as="geometry" />
        </mxCell>
        <mxCell id="UbLsy5ZLPje_TelzxTCp-15" value="TCP 443" style="text;html=1;align=center;verticalAlign=middle;whiteSpace=wrap;rounded=0;" vertex="1" parent="1">
          <mxGeometry x="70" y="353" width="60" height="30" as="geometry" />
        </mxCell>
        <mxCell id="UbLsy5ZLPje_TelzxTCp-16" value="" style="image;html=1;image=img/lib/clip_art/networking/Firewall_02_128x128.png" vertex="1" parent="1">
          <mxGeometry x="60" y="264.06" width="80" height="80" as="geometry" />
        </mxCell>
        <mxCell id="UbLsy5ZLPje_TelzxTCp-17" value="" style="sketch=0;points=[[0.015,0.015,0],[0.985,0.015,0],[0.985,0.985,0],[0.015,0.985,0],[0.25,0,0],[0.5,0,0],[0.75,0,0],[1,0.25,0],[1,0.5,0],[1,0.75,0],[0.75,1,0],[0.5,1,0],[0.25,1,0],[0,0.75,0],[0,0.5,0],[0,0.25,0]];verticalLabelPosition=bottom;html=1;verticalAlign=top;aspect=fixed;align=center;pointerEvents=1;shape=mxgraph.cisco19.rect;prIcon=firewall;fillColor=#FAFAFA;strokeColor=#005073;" vertex="1" parent="1">
          <mxGeometry x="-130" y="70" width="64" height="50" as="geometry" />
        </mxCell>
        <mxCell id="UbLsy5ZLPje_TelzxTCp-18" value="182.156.74.101 =&amp;gt; 172.16.22.22" style="text;html=1;align=center;verticalAlign=middle;whiteSpace=wrap;rounded=0;" vertex="1" parent="1">
          <mxGeometry x="-190" y="234.06" width="211" height="30" as="geometry" />
        </mxCell>
        <mxCell id="UbLsy5ZLPje_TelzxTCp-19" value="fintrust-dev.techwave.net" style="text;html=1;align=center;verticalAlign=middle;whiteSpace=wrap;rounded=0;" vertex="1" parent="1">
          <mxGeometry x="-169" y="340" width="142" height="30" as="geometry" />
        </mxCell>
        <mxCell id="UbLsy5ZLPje_TelzxTCp-21" value="" style="edgeStyle=orthogonalEdgeStyle;rounded=0;orthogonalLoop=1;jettySize=auto;html=1;" edge="1" parent="1" source="UbLsy5ZLPje_TelzxTCp-8" target="UbLsy5ZLPje_TelzxTCp-20">
          <mxGeometry relative="1" as="geometry">
            <mxPoint x="49" y="303" as="sourcePoint" />
            <mxPoint x="216" y="303" as="targetPoint" />
          </mxGeometry>
        </mxCell>
        <mxCell id="UbLsy5ZLPje_TelzxTCp-20" value="SSL padlock" style="sketch=0;outlineConnect=0;fontColor=#232F3E;gradientColor=none;strokeColor=#232F3E;fillColor=#ffffff;dashed=0;verticalLabelPosition=bottom;verticalAlign=top;align=center;html=1;fontSize=12;fontStyle=0;aspect=fixed;shape=mxgraph.aws4.resourceIcon;resIcon=mxgraph.aws4.ssl_padlock;" vertex="1" parent="1">
          <mxGeometry x="160" y="280.97" width="44.06" height="44.06" as="geometry" />
        </mxCell>
        <mxCell id="UbLsy5ZLPje_TelzxTCp-22" value="No SSL" style="sketch=0;outlineConnect=0;fontColor=#232F3E;gradientColor=none;strokeColor=#232F3E;fillColor=#ffffff;dashed=0;verticalLabelPosition=bottom;verticalAlign=top;align=center;html=1;fontSize=12;fontStyle=0;aspect=fixed;shape=mxgraph.aws4.resourceIcon;resIcon=mxgraph.aws4.ssl_padlock;" vertex="1" parent="1">
          <mxGeometry x="320" y="274.94000000000005" width="44.06" height="44.06" as="geometry" />
        </mxCell>
        <mxCell id="UbLsy5ZLPje_TelzxTCp-23" value="" style="endArrow=none;html=1;rounded=0;fontStyle=1;strokeColor=#f90b0b;strokeWidth=5;" edge="1" parent="1">
          <mxGeometry width="50" height="50" relative="1" as="geometry">
            <mxPoint x="320" y="320" as="sourcePoint" />
            <mxPoint x="370" y="270" as="targetPoint" />
          </mxGeometry>
        </mxCell>
        <mxCell id="UbLsy5ZLPje_TelzxTCp-24" value="172.16.22.22 / devserver" style="text;html=1;align=center;verticalAlign=middle;whiteSpace=wrap;rounded=0;fontStyle=1" vertex="1" parent="1">
          <mxGeometry x="382.97" y="100" width="140" height="30" as="geometry" />
        </mxCell>
        <mxCell id="UbLsy5ZLPje_TelzxTCp-25" value="80" style="text;html=1;align=center;verticalAlign=middle;whiteSpace=wrap;rounded=0;" vertex="1" parent="1">
          <mxGeometry x="316" y="234" width="60" height="30" as="geometry" />
        </mxCell>
        <mxCell id="UbLsy5ZLPje_TelzxTCp-26" value="" style="group" vertex="1" connectable="0" parent="1">
          <mxGeometry x="830" y="340" width="60" height="109" as="geometry" />
        </mxCell>
        <mxCell id="UbLsy5ZLPje_TelzxTCp-27" value="mongo" style="shape=cylinder3;whiteSpace=wrap;html=1;boundedLbl=1;backgroundOutline=1;size=15;" vertex="1" parent="UbLsy5ZLPje_TelzxTCp-26">
          <mxGeometry width="60" height="80" as="geometry" />
        </mxCell>
        <mxCell id="UbLsy5ZLPje_TelzxTCp-28" value="M" style="ellipse;whiteSpace=wrap;html=1;fillColor=#00FF00;strokeColor=none;" vertex="1" parent="UbLsy5ZLPje_TelzxTCp-26">
          <mxGeometry x="10" y="5" width="40" height="20" as="geometry" />
        </mxCell>
        <mxCell id="UbLsy5ZLPje_TelzxTCp-29" value="" style="image;sketch=0;aspect=fixed;html=1;points=[];align=center;fontSize=12;image=img/lib/mscae/Docker.svg;" vertex="1" parent="UbLsy5ZLPje_TelzxTCp-26">
          <mxGeometry x="10" y="68" width="50" height="41" as="geometry" />
        </mxCell>
        <mxCell id="UbLsy5ZLPje_TelzxTCp-30" value="" style="group" vertex="1" connectable="0" parent="1">
          <mxGeometry x="890" y="231" width="60" height="109" as="geometry" />
        </mxCell>
        <mxCell id="UbLsy5ZLPje_TelzxTCp-31" value="postgres" style="shape=cylinder3;whiteSpace=wrap;html=1;boundedLbl=1;backgroundOutline=1;size=15;" vertex="1" parent="UbLsy5ZLPje_TelzxTCp-30">
          <mxGeometry width="60" height="80" as="geometry" />
        </mxCell>
        <mxCell id="UbLsy5ZLPje_TelzxTCp-32" value="P" style="ellipse;whiteSpace=wrap;html=1;fillColor=#00FF00;strokeColor=none;" vertex="1" parent="UbLsy5ZLPje_TelzxTCp-30">
          <mxGeometry x="10" y="5" width="40" height="20" as="geometry" />
        </mxCell>
        <mxCell id="UbLsy5ZLPje_TelzxTCp-33" value="" style="image;sketch=0;aspect=fixed;html=1;points=[];align=center;fontSize=12;image=img/lib/mscae/Docker.svg;" vertex="1" parent="UbLsy5ZLPje_TelzxTCp-30">
          <mxGeometry x="10" y="68" width="50" height="41" as="geometry" />
        </mxCell>
        <mxCell id="UbLsy5ZLPje_TelzxTCp-48" style="edgeStyle=orthogonalEdgeStyle;rounded=0;orthogonalLoop=1;jettySize=auto;html=1;" edge="1" parent="1" source="UbLsy5ZLPje_TelzxTCp-35" target="UbLsy5ZLPje_TelzxTCp-47">
          <mxGeometry relative="1" as="geometry" />
        </mxCell>
        <mxCell id="UbLsy5ZLPje_TelzxTCp-35" value="" style="sketch=0;outlineConnect=0;fontColor=#ffffff;fillColor=#e51400;strokeColor=#B20000;dashed=0;verticalLabelPosition=bottom;verticalAlign=top;align=center;html=1;fontSize=12;fontStyle=0;aspect=fixed;pointerEvents=1;shape=mxgraph.aws4.queue;" vertex="1" parent="1">
          <mxGeometry x="950" y="150" width="78" height="47" as="geometry" />
        </mxCell>
        <mxCell id="UbLsy5ZLPje_TelzxTCp-36" value="" style="image;sketch=0;aspect=fixed;html=1;points=[];align=center;fontSize=12;image=img/lib/mscae/Docker.svg;" vertex="1" parent="1">
          <mxGeometry x="964" y="183.06" width="50" height="41" as="geometry" />
        </mxCell>
        <mxCell id="UbLsy5ZLPje_TelzxTCp-39" style="edgeStyle=orthogonalEdgeStyle;rounded=0;orthogonalLoop=1;jettySize=auto;html=1;" edge="1" parent="1" source="UbLsy5ZLPje_TelzxTCp-65" target="UbLsy5ZLPje_TelzxTCp-27">
          <mxGeometry relative="1" as="geometry">
            <mxPoint x="564.06" y="304" as="sourcePoint" />
            <Array as="points">
              <mxPoint x="690" y="304" />
              <mxPoint x="690" y="390" />
            </Array>
          </mxGeometry>
        </mxCell>
        <mxCell id="UbLsy5ZLPje_TelzxTCp-38" style="edgeStyle=orthogonalEdgeStyle;rounded=0;orthogonalLoop=1;jettySize=auto;html=1;" edge="1" parent="1" source="UbLsy5ZLPje_TelzxTCp-65" target="UbLsy5ZLPje_TelzxTCp-31">
          <mxGeometry relative="1" as="geometry">
            <mxPoint x="564.06" y="302.1" as="sourcePoint" />
          </mxGeometry>
        </mxCell>
        <mxCell id="UbLsy5ZLPje_TelzxTCp-40" value="TCP 5672, 15672" style="text;html=1;align=center;verticalAlign=middle;whiteSpace=wrap;rounded=0;" vertex="1" parent="1">
          <mxGeometry x="820" y="140" width="100" height="30" as="geometry" />
        </mxCell>
        <mxCell id="UbLsy5ZLPje_TelzxTCp-41" value="TCP 5432" style="text;html=1;align=center;verticalAlign=middle;whiteSpace=wrap;rounded=0;" vertex="1" parent="1">
          <mxGeometry x="780" y="234.06" width="100" height="30" as="geometry" />
        </mxCell>
        <mxCell id="UbLsy5ZLPje_TelzxTCp-42" value="TCP 27017" style="text;html=1;align=center;verticalAlign=middle;whiteSpace=wrap;rounded=0;" vertex="1" parent="1">
          <mxGeometry x="740" y="360" width="100" height="30" as="geometry" />
        </mxCell>
        <mxCell id="UbLsy5ZLPje_TelzxTCp-43" value="172.16.22.16 / devreplica" style="text;html=1;align=center;verticalAlign=middle;whiteSpace=wrap;rounded=0;fontStyle=1" vertex="1" parent="1">
          <mxGeometry x="850" y="100" width="160" height="30" as="geometry" />
        </mxCell>
        <mxCell id="UbLsy5ZLPje_TelzxTCp-44" value="32 GB RAM / 12 core / Ubuntu 20.04" style="text;html=1;align=center;verticalAlign=middle;whiteSpace=wrap;rounded=0;fontStyle=1" vertex="1" parent="1">
          <mxGeometry x="276" y="480" width="140" height="30" as="geometry" />
        </mxCell>
        <mxCell id="UbLsy5ZLPje_TelzxTCp-45" value="16 GB RAM / 12 core / Ubuntu 20.04" style="text;html=1;align=center;verticalAlign=middle;whiteSpace=wrap;rounded=0;fontStyle=1" vertex="1" parent="1">
          <mxGeometry x="850" y="480" width="140" height="30" as="geometry" />
        </mxCell>
        <mxCell id="UbLsy5ZLPje_TelzxTCp-47" value="" style="outlineConnect=0;dashed=0;verticalLabelPosition=bottom;verticalAlign=top;align=center;html=1;shape=mxgraph.aws3.volume;fillColor=#E05243;gradientColor=none;" vertex="1" parent="1">
          <mxGeometry x="1000" y="342.5" width="52.5" height="75" as="geometry" />
        </mxCell>
        <mxCell id="UbLsy5ZLPje_TelzxTCp-49" style="edgeStyle=orthogonalEdgeStyle;rounded=0;orthogonalLoop=1;jettySize=auto;html=1;" edge="1" parent="1" source="UbLsy5ZLPje_TelzxTCp-31" target="UbLsy5ZLPje_TelzxTCp-47">
          <mxGeometry relative="1" as="geometry" />
        </mxCell>
        <mxCell id="UbLsy5ZLPje_TelzxTCp-50" style="edgeStyle=orthogonalEdgeStyle;rounded=0;orthogonalLoop=1;jettySize=auto;html=1;" edge="1" parent="1" source="UbLsy5ZLPje_TelzxTCp-27" target="UbLsy5ZLPje_TelzxTCp-47">
          <mxGeometry relative="1" as="geometry" />
        </mxCell>
        <mxCell id="UbLsy5ZLPje_TelzxTCp-51" value="&lt;b&gt;Volume&lt;/b&gt;" style="text;html=1;align=center;verticalAlign=middle;whiteSpace=wrap;rounded=0;" vertex="1" parent="1">
          <mxGeometry x="996" y="420" width="60" height="30" as="geometry" />
        </mxCell>
        <mxCell id="UbLsy5ZLPje_TelzxTCp-62" style="edgeStyle=orthogonalEdgeStyle;rounded=0;orthogonalLoop=1;jettySize=auto;html=1;" edge="1" parent="1" source="UbLsy5ZLPje_TelzxTCp-61" target="UbLsy5ZLPje_TelzxTCp-6">
          <mxGeometry relative="1" as="geometry" />
        </mxCell>
        <mxCell id="UbLsy5ZLPje_TelzxTCp-61" value="devices" style="sketch=0;outlineConnect=0;gradientColor=none;fontColor=#545B64;strokeColor=none;fillColor=#879196;dashed=0;verticalLabelPosition=bottom;verticalAlign=top;align=center;html=1;fontSize=12;fontStyle=0;aspect=fixed;shape=mxgraph.aws4.illustration_devices;pointerEvents=1" vertex="1" parent="1">
          <mxGeometry x="-425" y="267" width="100" height="73" as="geometry" />
        </mxCell>
        <mxCell id="UbLsy5ZLPje_TelzxTCp-74" value="" style="group" vertex="1" connectable="0" parent="1">
          <mxGeometry x="415" y="203.97" width="125" height="174.03" as="geometry" />
        </mxCell>
        <mxCell id="UbLsy5ZLPje_TelzxTCp-65" value="" style="rounded=0;whiteSpace=wrap;html=1;" vertex="1" parent="UbLsy5ZLPje_TelzxTCp-74">
          <mxGeometry width="125" height="166.03" as="geometry" />
        </mxCell>
        <mxCell id="UbLsy5ZLPje_TelzxTCp-66" value="" style="aspect=fixed;sketch=0;html=1;dashed=0;whitespace=wrap;verticalLabelPosition=bottom;verticalAlign=top;fillColor=#2875E2;strokeColor=#ffffff;points=[[0.005,0.63,0],[0.1,0.2,0],[0.9,0.2,0],[0.5,0,0],[0.995,0.63,0],[0.72,0.99,0],[0.5,1,0],[0.28,0.99,0]];shape=mxgraph.kubernetes.icon2;prIcon=pod" vertex="1" parent="UbLsy5ZLPje_TelzxTCp-74">
          <mxGeometry x="29.47999999999996" y="33.91118118279571" width="26.038145698924733" height="24.993763440860217" as="geometry" />
        </mxCell>
        <mxCell id="UbLsy5ZLPje_TelzxTCp-67" value="" style="aspect=fixed;sketch=0;html=1;dashed=0;whitespace=wrap;verticalLabelPosition=bottom;verticalAlign=top;fillColor=#2875E2;strokeColor=#ffffff;points=[[0.005,0.63,0],[0.1,0.2,0],[0.9,0.2,0],[0.5,0,0],[0.995,0.63,0],[0.72,0.99,0],[0.5,1,0],[0.28,0.99,0]];shape=mxgraph.kubernetes.icon2;prIcon=pod" vertex="1" parent="UbLsy5ZLPje_TelzxTCp-74">
          <mxGeometry x="71.08999999999997" y="33.91118118279571" width="26.038145698924733" height="24.993763440860217" as="geometry" />
        </mxCell>
        <mxCell id="UbLsy5ZLPje_TelzxTCp-68" value="" style="aspect=fixed;sketch=0;html=1;dashed=0;whitespace=wrap;verticalLabelPosition=bottom;verticalAlign=top;fillColor=#2875E2;strokeColor=#ffffff;points=[[0.005,0.63,0],[0.1,0.2,0],[0.9,0.2,0],[0.5,0,0],[0.995,0.63,0],[0.72,0.99,0],[0.5,1,0],[0.28,0.99,0]];shape=mxgraph.kubernetes.icon2;prIcon=pod" vertex="1" parent="UbLsy5ZLPje_TelzxTCp-74">
          <mxGeometry x="29.479999999999947" y="70.51811827956989" width="26.038145698924733" height="24.993763440860217" as="geometry" />
        </mxCell>
        <mxCell id="UbLsy5ZLPje_TelzxTCp-69" value="" style="aspect=fixed;sketch=0;html=1;dashed=0;whitespace=wrap;verticalLabelPosition=bottom;verticalAlign=top;fillColor=#2875E2;strokeColor=#ffffff;points=[[0.005,0.63,0],[0.1,0.2,0],[0.9,0.2,0],[0.5,0,0],[0.995,0.63,0],[0.72,0.99,0],[0.5,1,0],[0.28,0.99,0]];shape=mxgraph.kubernetes.icon2;prIcon=pod" vertex="1" parent="UbLsy5ZLPje_TelzxTCp-74">
          <mxGeometry x="69.99999999999994" y="70.51811827956989" width="26.038145698924733" height="24.993763440860217" as="geometry" />
        </mxCell>
        <mxCell id="UbLsy5ZLPje_TelzxTCp-70" value="" style="aspect=fixed;sketch=0;html=1;dashed=0;whitespace=wrap;verticalLabelPosition=bottom;verticalAlign=top;fillColor=#2875E2;strokeColor=#ffffff;points=[[0.005,0.63,0],[0.1,0.2,0],[0.9,0.2,0],[0.5,0,0],[0.995,0.63,0],[0.72,0.99,0],[0.5,1,0],[0.28,0.99,0]];shape=mxgraph.kubernetes.icon2;prIcon=pod" vertex="1" parent="UbLsy5ZLPje_TelzxTCp-74">
          <mxGeometry x="29.47999999999996" y="107.10720268817205" width="26.038145698924733" height="24.993763440860217" as="geometry" />
        </mxCell>
        <mxCell id="UbLsy5ZLPje_TelzxTCp-71" value="" style="aspect=fixed;sketch=0;html=1;dashed=0;whitespace=wrap;verticalLabelPosition=bottom;verticalAlign=top;fillColor=#2875E2;strokeColor=#ffffff;points=[[0.005,0.63,0],[0.1,0.2,0],[0.9,0.2,0],[0.5,0,0],[0.995,0.63,0],[0.72,0.99,0],[0.5,1,0],[0.28,0.99,0]];shape=mxgraph.kubernetes.icon2;prIcon=pod" vertex="1" parent="UbLsy5ZLPje_TelzxTCp-74">
          <mxGeometry x="69.99999999999997" y="107.10720268817205" width="26.038145698924733" height="24.993763440860217" as="geometry" />
        </mxCell>
        <mxCell id="UbLsy5ZLPje_TelzxTCp-81" value="" style="aspect=fixed;sketch=0;html=1;dashed=0;whitespace=wrap;verticalLabelPosition=bottom;verticalAlign=top;fillColor=#2875E2;strokeColor=#ffffff;points=[[0.005,0.63,0],[0.1,0.2,0],[0.9,0.2,0],[0.5,0,0],[0.995,0.63,0],[0.72,0.99,0],[0.5,1,0],[0.28,0.99,0]];shape=mxgraph.kubernetes.icon2;kubernetesLabel=1;prIcon=svc" vertex="1" parent="UbLsy5ZLPje_TelzxTCp-74">
          <mxGeometry x="29.480000000000018" y="146.03" width="29.17" height="28" as="geometry" />
        </mxCell>
        <mxCell id="UbLsy5ZLPje_TelzxTCp-82" value="" style="aspect=fixed;sketch=0;html=1;dashed=0;whitespace=wrap;verticalLabelPosition=bottom;verticalAlign=top;fillColor=#2875E2;strokeColor=#ffffff;points=[[0.005,0.63,0],[0.1,0.2,0],[0.9,0.2,0],[0.5,0,0],[0.995,0.63,0],[0.72,0.99,0],[0.5,1,0],[0.28,0.99,0]];shape=mxgraph.kubernetes.icon2;kubernetesLabel=1;prIcon=svc" vertex="1" parent="UbLsy5ZLPje_TelzxTCp-74">
          <mxGeometry x="71.09000000000003" y="146.03" width="29.17" height="28" as="geometry" />
        </mxCell>
        <mxCell id="UbLsy5ZLPje_TelzxTCp-12" value="" style="aspect=fixed;sketch=0;html=1;dashed=0;whitespace=wrap;verticalLabelPosition=bottom;verticalAlign=top;fillColor=#2875E2;strokeColor=#ffffff;points=[[0.005,0.63,0],[0.1,0.2,0],[0.9,0.2,0],[0.5,0,0],[0.995,0.63,0],[0.72,0.99,0],[0.5,1,0],[0.28,0.99,0]];shape=mxgraph.kubernetes.icon2;prIcon=ing" vertex="1" parent="1">
          <mxGeometry x="380" y="271" width="50" height="48" as="geometry" />
        </mxCell>
        <mxCell id="UbLsy5ZLPje_TelzxTCp-83" style="edgeStyle=orthogonalEdgeStyle;rounded=0;orthogonalLoop=1;jettySize=auto;html=1;entryX=0.28;entryY=0.99;entryDx=0;entryDy=0;entryPerimeter=0;" edge="1" parent="1" target="UbLsy5ZLPje_TelzxTCp-81">
          <mxGeometry relative="1" as="geometry">
            <mxPoint x="480" y="410" as="sourcePoint" />
          </mxGeometry>
        </mxCell>
        <mxCell id="UbLsy5ZLPje_TelzxTCp-86" style="edgeStyle=orthogonalEdgeStyle;rounded=0;orthogonalLoop=1;jettySize=auto;html=1;entryX=0.641;entryY=0.7;entryDx=0;entryDy=0;entryPerimeter=0;" edge="1" parent="1" source="UbLsy5ZLPje_TelzxTCp-84" target="UbLsy5ZLPje_TelzxTCp-82">
          <mxGeometry relative="1" as="geometry">
            <Array as="points">
              <mxPoint x="520" y="419" />
              <mxPoint x="520" y="377" />
              <mxPoint x="478" y="377" />
              <mxPoint x="478" y="370" />
            </Array>
          </mxGeometry>
        </mxCell>
        <mxCell id="UbLsy5ZLPje_TelzxTCp-84" value="" style="fillColor=#28A8E0;verticalLabelPosition=bottom;sketch=0;html=1;strokeColor=#ffffff;verticalAlign=top;align=center;points=[[0.145,0.145,0],[0.5,0,0],[0.855,0.145,0],[1,0.5,0],[0.855,0.855,0],[0.5,1,0],[0.145,0.855,0],[0,0.5,0]];pointerEvents=1;shape=mxgraph.cisco_safe.compositeIcon;bgIcon=ellipse;resIcon=mxgraph.cisco_safe.capability.load_balancer;rotation=-90;" vertex="1" parent="1">
          <mxGeometry x="470" y="397" width="43" height="43" as="geometry" />
        </mxCell>
        <mxCell id="UbLsy5ZLPje_TelzxTCp-87" value="haproxy" style="text;html=1;align=center;verticalAlign=middle;whiteSpace=wrap;rounded=0;" vertex="1" parent="1">
          <mxGeometry x="513" y="420" width="60" height="30" as="geometry" />
        </mxCell>
        <mxCell id="UbLsy5ZLPje_TelzxTCp-88" value="" style="sketch=0;aspect=fixed;pointerEvents=1;shadow=0;dashed=0;html=1;strokeColor=none;labelPosition=center;verticalLabelPosition=bottom;verticalAlign=top;align=center;fillColor=#00188D;shape=mxgraph.mscae.enterprise.workstation_client" vertex="1" parent="1">
          <mxGeometry x="466.5" y="500" width="50" height="50" as="geometry" />
        </mxCell>
        <mxCell id="UbLsy5ZLPje_TelzxTCp-89" style="edgeStyle=orthogonalEdgeStyle;rounded=0;orthogonalLoop=1;jettySize=auto;html=1;entryX=0.298;entryY=0.512;entryDx=0;entryDy=0;entryPerimeter=0;" edge="1" parent="1" source="UbLsy5ZLPje_TelzxTCp-88" target="UbLsy5ZLPje_TelzxTCp-84">
          <mxGeometry relative="1" as="geometry" />
        </mxCell>
      </root>
    </mxGraphModel>
  </diagram>
</mxfile>
